<svg width="109" height="109" viewBox="0 0 109 109" fill="none" xmlns="http://www.w3.org/2000/svg">
<g clip-path="url(#clip0_215_25)">
<g filter="url(#filter0_d_215_25)">
<circle cx="54.5" cy="54.5" r="38.9286" fill="white"/>
</g>
<path d="M75.3814 43.6997C75.3814 38.0464 77.4089 35.286 77.4272 35.2655C77.7788 34.8111 77.7377 34.1649 77.3313 33.7585L73.9065 30.3337C73.5481 29.9753 72.9955 29.8976 72.5525 30.1396C72.5114 30.1602 68.5682 32.2836 63.9652 32.2836C59.3874 32.2836 55.4168 30.1602 55.378 30.1396C55.0377 29.957 54.6245 29.9547 54.2866 30.1396C54.2455 30.1602 50.3024 32.2836 45.6994 32.2836C41.1215 32.2836 37.151 30.1602 37.1121 30.1396C36.6691 29.8999 36.1167 29.9775 35.7605 30.336L32.3356 33.7609C31.9338 34.1628 31.8927 34.8066 32.2351 35.261C32.2557 35.2884 34.2832 38.0488 34.2832 43.702C34.2832 46.2707 33.8676 48.0516 33.3859 50.1133C32.7352 52.8966 32 56.052 32 61.9679C32 72.8132 40.4342 77.7838 54.3254 84.6815C54.4852 84.7568 54.6588 84.7979 54.8323 84.7979C55.0057 84.7979 55.1793 84.7568 55.3391 84.6792C69.2303 77.7816 77.6645 72.811 77.6645 61.9656C77.6645 56.0475 76.927 52.8944 76.2786 50.1111C75.7993 48.0515 75.3814 46.2707 75.3814 43.6997ZM67.0568 53.6408L61.8053 58.8923L63.858 67.1028C63.9561 67.2718 64.0109 67.4658 64.0109 67.6736C64.0109 68.3128 63.383 68.8608 62.8465 68.8152H62.8237C62.6297 68.8152 62.4333 68.765 62.2574 68.6645L54.8324 64.4223L47.4073 68.6645C47.01 68.8906 46.5168 68.8586 46.1516 68.5823C45.7863 68.3061 45.6219 67.8403 45.7337 67.3951L47.8594 58.8878L42.6079 53.6363C42.3019 53.3303 42.1947 52.8783 42.3317 52.4673C42.4687 52.0563 42.8249 51.7595 43.2518 51.6979L50.6084 50.6476L53.782 43.2453C54.1404 42.4051 55.5218 42.4051 55.8803 43.2453L59.0539 50.6476L66.4105 51.6979C66.8398 51.7595 67.1959 52.0563 67.3306 52.4673C67.4678 52.8805 67.3604 53.3349 67.0568 53.6408Z" fill="#1C59F7"/>
</g>
<defs>
<filter id="filter0_d_215_25" x="-3.89287" y="-3.89287" width="116.786" height="116.786" filterUnits="userSpaceOnUse" color-interpolation-filters="sRGB">
<feFlood flood-opacity="0" result="BackgroundImageFix"/>
<feColorMatrix in="SourceAlpha" type="matrix" values="0 0 0 0 0 0 0 0 0 0 0 0 0 0 0 0 0 0 127 0" result="hardAlpha"/>
<feOffset/>
<feGaussianBlur stdDeviation="9.73214"/>
<feComposite in2="hardAlpha" operator="out"/>
<feColorMatrix type="matrix" values="0 0 0 0 0 0 0 0 0 0 0 0 0 0 0 0 0 0 1 0"/>
<feBlend mode="normal" in2="BackgroundImageFix" result="effect1_dropShadow_215_25"/>
<feBlend mode="normal" in="SourceGraphic" in2="effect1_dropShadow_215_25" result="shape"/>
</filter>
<clipPath id="clip0_215_25">
<rect width="109" height="109" fill="white"/>
</clipPath>
</defs>
</svg>
