<svg width="100" height="100" viewBox="0 0 100 100" fill="none" xmlns="http://www.w3.org/2000/svg">
<path fill-rule="evenodd" clip-rule="evenodd" d="M63.6164 87.6011C81.8132 81.8509 95 64.8828 95 44.8454C95 20.0779 74.8528 0 50 0C25.1472 0 5 20.0779 5 44.8454C5 64.8836 18.1878 81.8522 36.3857 87.6018C37.9329 89.3807 39.5067 91.1371 41.1067 92.8703C42.7592 94.6639 44.4404 96.4314 46.1498 98.1722L46.4504 98.4742L46.5329 98.5557L46.562 98.5892C47.0125 99.0364 47.5479 99.3912 48.1375 99.6333C48.727 99.8754 49.3592 100 49.9976 100C50.636 100 51.2681 99.8754 51.8577 99.6333C52.4472 99.3912 52.9827 99.0364 53.4332 98.5892L50 95.2049L53.438 98.5844L53.5496 98.4742L53.8502 98.1722C57.2128 94.7456 60.4696 91.2203 63.6164 87.6011ZM50.5 64C61.2696 64 70 55.2696 70 44.5C70 33.7304 61.2696 25 50.5 25C39.7304 25 31 33.7304 31 44.5C31 55.2696 39.7304 64 50.5 64Z" fill="#FFC700"/>
</svg>
