<svg width="100" height="100" viewBox="0 0 100 100" fill="none" xmlns="http://www.w3.org/2000/svg">
<path d="M81.3351 11.4995C80.7203 11.1315 79.4704 10.631 78.004 11.4162C60.4688 20.8077 39.5314 20.8077 21.9962 11.4162C21.4263 11.1111 20.8888 11 20.4089 11C19.6539 11 19.0409 11.2745 18.6649 11.4995C17.226 12.3615 16.332 14.1156 16.332 16.0772V41.8444C16.332 49.6345 18.0598 57.3483 21.3283 64.1523C24.5787 70.9183 29.2905 76.6534 34.9548 80.7384L43.4916 86.8944C47.3846 89.7017 52.6156 89.7017 56.5084 86.8944L65.0452 80.7384C70.7093 76.6536 75.4213 70.9183 78.6717 64.1523C81.9404 57.3483 83.668 49.6344 83.668 41.8444V16.0772C83.668 14.1156 82.774 12.3615 81.3351 11.4995ZM34.9017 39.9418C32.2504 39.9418 29.7934 40.7693 27.772 42.1787C26.9898 42.7239 25.8956 42.2614 25.7952 41.3132C25.7615 40.995 25.7443 40.672 25.7443 40.3449C25.7443 35.0692 30.2055 30.8355 35.5613 31.2105C40.0536 31.5251 43.6864 35.1375 44.0316 39.6275C44.0752 40.1944 44.0665 40.7512 44.0103 41.2939C43.9111 42.2504 42.8205 42.7285 42.0315 42.1785C40.0099 40.7693 37.5531 39.9418 34.9017 39.9418ZM50.0859 72.8194C42.7082 72.8194 36.7274 66.8385 36.7274 59.4608C36.7274 59.4535 36.7274 59.4462 36.7274 59.4389C36.7289 58.4901 37.7636 57.8903 38.5908 58.355C41.9893 60.264 45.9103 61.353 50.0858 61.353C54.2612 61.353 58.1822 60.264 61.5807 58.355C62.4079 57.8903 63.4427 58.4901 63.4442 59.4389V59.4608C63.4445 66.8385 57.4636 72.8194 50.0859 72.8194ZM74.2068 41.2939C74.1076 42.2504 73.017 42.7285 72.228 42.1785C70.2064 40.7692 67.7496 39.9417 65.0982 39.9417C62.4469 39.9417 59.9901 40.7692 57.9685 42.1785C57.1864 42.7238 56.0921 42.2612 55.9917 41.3131C55.958 40.9948 55.9408 40.6718 55.9408 40.3448C55.9408 35.0691 60.402 30.8353 65.7578 31.2104C70.2501 31.525 73.8829 35.1373 74.2283 39.6274C74.2717 40.1945 74.263 40.7512 74.2068 41.2939Z" fill="#9F0A0A" stroke="#1E0909" stroke-width="3"/>
<style xmlns="" id="autoconsent-prehide"/></svg>