<svg width="100" height="100" viewBox="0 0 100 100" fill="none" xmlns="http://www.w3.org/2000/svg">
<path fill-rule="evenodd" clip-rule="evenodd" d="M31.1234 83.5408C31.1234 83.5408 34.5403 94.2796 37.5299 96.4274C40.5196 98.5751 58.8866 98.4727 61.7341 96.4274C64.5817 94.382 68.1415 84.9727 68.1415 84.9727C68.1415 84.9727 76.6834 83.5408 78.8194 78.5294C80.9555 73.518 73.8366 52.7563 73.8366 52.7563L80.9555 59.9155C80.9555 59.9155 81.6674 46.3131 77.3961 36.2902C73.1247 26.2674 61.7345 16.2445 61.7345 16.2445L64.5821 26.2674C64.5821 26.2674 47.4968 14.0968 46.7849 10.5171C46.073 6.93754 51.7681 3.35795 51.7681 3.35795C51.7681 3.35795 46.073 1.92613 41.8017 4.78982C37.5303 7.65351 36.1066 10.5171 36.1066 10.5171L33.9709 30.5629L31.1234 16.2445C31.1234 16.2445 29.6994 29.131 22.5806 34.8584C15.4617 40.5857 21.1566 59.1996 21.1566 59.1996L28.2758 49.8927C28.2758 49.8927 19.7333 67.0747 21.1569 75.6657C22.5806 84.2567 31.1234 83.5408 31.1234 83.5408ZM70.2559 61.7053C68.1411 59.9155 55.3271 69.2225 55.3271 69.2225C55.3271 69.2225 66.6965 75.3078 70.2768 73.518C73.8571 71.7282 72.3707 63.4951 70.2559 61.7053ZM46.0726 68.5065C46.0726 68.5065 38.221 63.1372 33.2378 61.7053C28.2545 60.2735 25.4278 71.3702 30.4111 74.2339C35.3943 77.0976 46.0726 68.5065 46.0726 68.5065ZM46.0726 86.7625C44.628 86.0465 47.4755 79.2453 49.6112 78.8874C51.7468 78.5294 54.6152 85.3306 53.1706 86.7625C51.726 88.1943 47.5172 87.4784 46.0726 86.7625Z" fill="white" stroke="black" stroke-width="3"/>
</svg>