<svg id="Layer_1" enable-background="new 0 0 24 24" height="512" viewBox="0 0 24 24" width="512" xmlns="http://www.w3.org/2000/svg"><g><path d="m3.5 7.5h17c.8286133 0 1.5-.6713867 1.5-1.5s-.6713867-1.5-1.5-1.5h-17c-.8286133 0-1.5.6713867-1.5 1.5s.6713867 1.5 1.5 1.5z"/><path d="m20.5 10.5h-17c-.8286133 0-1.5.6713867-1.5 1.5s.6713867 1.5 1.5 1.5h17c.8286133 0 1.5-.6713867 1.5-1.5s-.6713867-1.5-1.5-1.5z"/><path d="m20.5 16.5h-17c-.8286133 0-1.5.6713867-1.5 1.5s.6713867 1.5 1.5 1.5h17c.8286133 0 1.5-.6713867 1.5-1.5s-.6713867-1.5-1.5-1.5z"/></g></svg>