<svg width="100" height="100" viewBox="0 0 100 100" fill="none" xmlns="http://www.w3.org/2000/svg">
<g clip-path="url(#clip0_411_50)">
<g filter="url(#filter0_dd_411_50)">
<path d="M8.14355 34.5902H78.4244M43.5107 32V41.1274" stroke="#B5B79A" stroke-width="4.31759" stroke-linecap="round"/>
<path d="M54.6516 64.767L78.3828 73.8943" stroke="#B5B79A" stroke-width="3.45407" stroke-linecap="round"/>
<path fill-rule="evenodd" clip-rule="evenodd" d="M5.45019 61.8641L12.2304 67.4752C13.0047 68.1159 13.9782 68.4665 14.9831 68.4665H56.8293C57.6916 68.4665 58.5342 68.2082 59.2485 67.7251L73.3289 58.2C73.5551 58.047 73.7954 57.9158 74.0464 57.8081L89.6636 51.1106C90.919 50.5722 91.8456 49.4715 92.162 48.1426L95.6573 33.4622C95.8459 32.6703 94.9344 32.0812 94.2899 32.5784L82.0444 42.025C80.9207 42.8918 79.4429 43.1511 78.0913 42.7185L69.4826 39.9638C69.0572 39.8276 68.6133 39.7583 68.1667 39.7583H26.4335C25.2458 39.7583 24.1106 40.2475 23.295 41.1108L13.9457 51.0068C13.6033 51.3692 13.2008 51.6695 12.756 51.8945L6.19499 55.2131C3.62279 56.5142 3.22948 60.0264 5.45019 61.8641ZM64.641 46.798C63.2103 46.798 62.0505 47.9578 62.0505 49.3886V52.4221C62.0505 53.8528 63.2103 55.0126 64.641 55.0126H66.8589C68.2896 55.0126 69.4495 53.8528 69.4495 52.4221V49.3886C69.4495 47.9578 68.2896 46.798 66.8589 46.798H64.641ZM52.5375 49.3886C52.5375 47.9578 53.6973 46.798 55.128 46.798H57.3459C58.7766 46.798 59.9365 47.9578 59.9365 49.3886V52.4221C59.9365 53.8528 58.7766 55.0126 57.3459 55.0126H55.128C53.6973 55.0126 52.5375 53.8528 52.5375 52.4221V49.3886ZM45.6153 46.798C44.1846 46.798 43.0247 47.9578 43.0247 49.3886V52.4221C43.0247 53.8528 44.1846 55.0126 45.6153 55.0126H47.8332C49.2639 55.0126 50.4237 53.8528 50.4237 52.4221V49.3886C50.4237 47.9578 49.2639 46.798 47.8332 46.798H45.6153ZM33.5115 49.3886C33.5115 47.9578 34.6713 46.798 36.1021 46.798H38.3199C39.7507 46.798 40.9105 47.9578 40.9105 49.3886V52.4221C40.9105 53.8528 39.7507 55.0126 38.3199 55.0126H36.1021C34.6713 55.0126 33.5115 53.8528 33.5115 52.4221V49.3886ZM26.5891 46.798C25.1584 46.798 23.9985 47.9578 23.9985 49.3885V52.4221C23.9985 53.8528 25.1584 55.0126 26.5891 55.0126H28.807C30.2377 55.0126 31.3975 53.8528 31.3975 52.4221V49.3885C31.3975 47.9578 30.2377 46.798 28.807 46.798H26.5891Z" fill="#B5B79A"/>
</g>
</g>
<defs>
<filter id="filter0_dd_411_50" x="-11" y="18.8412" width="121.683" height="75.7806" filterUnits="userSpaceOnUse" color-interpolation-filters="sRGB">
<feFlood flood-opacity="0" result="BackgroundImageFix"/>
<feColorMatrix in="SourceAlpha" type="matrix" values="0 0 0 0 0 0 0 0 0 0 0 0 0 0 0 0 0 0 127 0" result="hardAlpha"/>
<feOffset dy="4"/>
<feGaussianBlur stdDeviation="2"/>
<feComposite in2="hardAlpha" operator="out"/>
<feColorMatrix type="matrix" values="0 0 0 0 0.0653889 0 0 0 0 0.0666667 0 0 0 0 0.0602778 0 0 0 1 0"/>
<feBlend mode="normal" in2="BackgroundImageFix" result="effect1_dropShadow_411_50"/>
<feColorMatrix in="SourceAlpha" type="matrix" values="0 0 0 0 0 0 0 0 0 0 0 0 0 0 0 0 0 0 127 0" result="hardAlpha"/>
<feOffset dy="4"/>
<feGaussianBlur stdDeviation="7.5"/>
<feComposite in2="hardAlpha" operator="out"/>
<feColorMatrix type="matrix" values="0 0 0 0 0.160784 0 0 0 0 0.160784 0 0 0 0 0.141176 0 0 0 1 0"/>
<feBlend mode="normal" in2="effect1_dropShadow_411_50" result="effect2_dropShadow_411_50"/>
<feBlend mode="normal" in="SourceGraphic" in2="effect2_dropShadow_411_50" result="shape"/>
</filter>
<clipPath id="clip0_411_50">
<rect width="100" height="100" fill="white"/>
</clipPath>
</defs>
</svg>