<svg width="100" height="100" viewBox="0 0 100 100" fill="none" xmlns="http://www.w3.org/2000/svg">
<path d="M49.9992 41.6663C52.2094 41.6663 54.329 42.5443 55.8918 44.1071C57.4546 45.6699 58.3326 47.7895 58.3326 49.9997C58.3326 52.2098 57.4546 54.3294 55.8918 55.8922C54.329 57.455 52.2094 58.333 49.9992 58.333C47.7891 58.333 45.6695 57.455 44.1067 55.8922C42.5439 54.3294 41.6659 52.2098 41.6659 49.9997C41.6659 47.7895 42.5439 45.6699 44.1067 44.1071C45.6695 42.5443 47.7891 41.6663 49.9992 41.6663M49.9992 91.6663C41.8742 91.6663 34.2492 89.333 27.8742 85.2913L41.6659 64.458C44.2046 65.9059 47.0767 66.6673 49.9992 66.6673C52.9218 66.6673 55.7939 65.9059 58.3326 64.458L72.1242 85.2913C65.5035 89.4727 57.8297 91.6838 49.9992 91.6663M8.33258 49.9997C8.33258 32.7497 18.7492 17.9163 33.7909 11.583L43.0826 34.833C40.1765 36.1631 37.7131 38.2991 35.9849 40.9875C34.2566 43.6759 33.3361 46.8037 33.3326 49.9997H8.33258ZM66.6659 49.9997C66.6659 43.2497 62.6659 37.4997 56.9159 34.833L66.2076 11.583C73.7645 14.7651 80.2126 20.1092 84.7421 26.9442C89.2715 33.7792 91.6803 41.8001 91.6659 49.9997H66.6659Z" fill="#9D3585" fill-opacity="0.9"/>
</svg>
