<svg width="100" height="100" viewBox="0 0 100 100" fill="none" xmlns="http://www.w3.org/2000/svg">
<mask id="path-1-inside-1_283_10" fill="white">
<path fill-rule="evenodd" clip-rule="evenodd" d="M62.1034 83.4232C78.2784 78.3119 90 63.2292 90 45.4181C90 23.4026 72.0914 5.55554 50 5.55554C27.9086 5.55554 10 23.4026 10 45.4181C10 63.2299 21.7225 78.3131 37.8985 83.4238C39.2737 85.0051 40.6726 86.5663 42.0948 88.1069C43.5637 89.7013 45.0581 91.2724 46.5776 92.8197L46.8448 93.0882L46.9181 93.1606L46.944 93.1904C47.3444 93.5879 47.8204 93.9033 48.3444 94.1185C48.8685 94.3337 49.4304 94.4444 49.9978 94.4444C50.5653 94.4444 51.1272 94.3337 51.6513 94.1185C52.1753 93.9033 52.6513 93.5879 53.0517 93.1904L50 91L53.056 93.1862L53.1552 93.0882L53.4224 92.8197C56.4114 89.7739 59.3064 86.6403 62.1034 83.4232ZM50.4444 62.4444C60.0174 62.4444 67.7778 54.684 67.7778 45.1111C67.7778 35.5382 60.0174 27.7778 50.4444 27.7778C40.8715 27.7778 33.1111 35.5382 33.1111 45.1111C33.1111 54.684 40.8715 62.4444 50.4444 62.4444Z"/>
</mask>
<path fill-rule="evenodd" clip-rule="evenodd" d="M62.1034 83.4232C78.2784 78.3119 90 63.2292 90 45.4181C90 23.4026 72.0914 5.55554 50 5.55554C27.9086 5.55554 10 23.4026 10 45.4181C10 63.2299 21.7225 78.3131 37.8985 83.4238C39.2737 85.0051 40.6726 86.5663 42.0948 88.1069C43.5637 89.7013 45.0581 91.2724 46.5776 92.8197L46.8448 93.0882L46.9181 93.1606L46.944 93.1904C47.3444 93.5879 47.8204 93.9033 48.3444 94.1185C48.8685 94.3337 49.4304 94.4444 49.9978 94.4444C50.5653 94.4444 51.1272 94.3337 51.6513 94.1185C52.1753 93.9033 52.6513 93.5879 53.0517 93.1904L50 91L53.056 93.1862L53.1552 93.0882L53.4224 92.8197C56.4114 89.7739 59.3064 86.6403 62.1034 83.4232ZM50.4444 62.4444C60.0174 62.4444 67.7778 54.684 67.7778 45.1111C67.7778 35.5382 60.0174 27.7778 50.4444 27.7778C40.8715 27.7778 33.1111 35.5382 33.1111 45.1111C33.1111 54.684 40.8715 62.4444 50.4444 62.4444Z" fill="#1AA717"/>
<path d="M48.6917 95.6288L51.7477 93.4383L48.2523 88.5617L45.1963 90.7521L48.6917 95.6288ZM62.1034 83.4232L60.2956 77.702L58.6843 78.2112L57.5756 79.4864L62.1034 83.4232ZM37.8985 83.4238L42.4259 79.4865L41.3171 78.2116L39.706 77.7025L37.8985 83.4238ZM42.0948 88.1069L46.5075 84.0415L46.5035 84.0371L42.0948 88.1069ZM46.5776 92.8197L42.2966 97.0236L42.3109 97.0382L42.3254 97.0527L46.5776 92.8197ZM46.8448 93.0882L42.5926 97.3212L42.6096 97.3382L42.6267 97.3552L46.8448 93.0882ZM46.9181 93.1606L51.4515 89.2301L51.3003 89.0558L51.1362 88.8936L46.9181 93.1606ZM46.944 93.1904L42.4106 97.1209L42.5578 97.2907L42.7174 97.4491L46.944 93.1904ZM53.0517 93.1904L57.2783 97.4491L62.3129 92.4523L56.5504 88.3161L53.0517 93.1904ZM50 91L53.4909 86.1201L46.5013 95.8744L50 91ZM53.056 93.1862L49.5651 98.0661L53.6779 101.008L57.2741 97.4532L53.056 93.1862ZM53.1552 93.0882L57.3733 97.3552L57.3904 97.3383L57.4074 97.3212L53.1552 93.0882ZM53.4224 92.8197L57.6746 97.0528L57.6898 97.0375L57.7048 97.0222L53.4224 92.8197ZM84 45.4181C84 60.5257 74.0582 73.3531 60.2956 77.702L63.9113 89.1443C82.4987 83.2708 96 65.9327 96 45.4181H84ZM50 11.5555C68.7972 11.5555 84 26.7358 84 45.4181H96C96 20.0694 75.3856 -0.444458 50 -0.444458V11.5555ZM16 45.4181C16 26.7358 31.2028 11.5555 50 11.5555V-0.444458C24.6144 -0.444458 4 20.0694 4 45.4181H16ZM39.706 77.7025C25.9426 73.3541 16 60.5262 16 45.4181H4C4 65.9335 17.5024 83.2721 36.0909 89.145L39.706 77.7025ZM46.5035 84.0371C45.1215 82.54 43.7621 81.023 42.4259 79.4865L33.371 87.3611C34.7852 88.9872 36.2237 90.5926 37.6862 92.1768L46.5035 84.0371ZM50.8586 88.6158C49.3838 87.1139 47.9332 85.5889 46.5075 84.0415L37.6821 92.1724C39.1942 93.8136 40.7325 95.4309 42.2966 97.0236L50.8586 88.6158ZM51.0971 88.8551L50.8298 88.5867L42.3254 97.0527L42.5926 97.3212L51.0971 88.8551ZM51.1362 88.8936L51.063 88.8212L42.6267 97.3552L42.7 97.4276L51.1362 88.8936ZM51.4773 89.26L51.4515 89.2301L42.3847 97.0911L42.4106 97.1209L51.4773 89.26ZM50.6235 88.5682C50.824 88.6505 51.0105 88.7729 51.1706 88.9318L42.7174 97.4491C43.6784 98.4029 44.8168 99.1561 46.0653 99.6688L50.6235 88.5682ZM49.9978 88.4444C50.2108 88.4444 50.4232 88.4859 50.6235 88.5682L46.0653 99.6688C47.3138 100.181 48.65 100.444 49.9978 100.444V88.4444ZM49.3722 88.5682C49.5725 88.4859 49.7849 88.4444 49.9978 88.4444V100.444C51.3458 100.444 52.6819 100.181 53.9304 99.6688L49.3722 88.5682ZM48.8251 88.9318C48.9852 88.7729 49.1717 88.6505 49.3722 88.5682L53.9304 99.6688C55.1789 99.1561 56.3173 98.4029 57.2783 97.4491L48.8251 88.9318ZM46.5013 95.8744L49.5531 98.0648L56.5504 88.3161L53.4987 86.1256L46.5013 95.8744ZM56.5469 88.3063L53.4909 86.1201L46.5091 95.8799L49.5651 98.0661L56.5469 88.3063ZM48.9371 88.8211L48.8379 88.9191L57.2741 97.4532L57.3733 97.3552L48.9371 88.8211ZM49.1702 88.5867L48.903 88.8551L57.4074 97.3212L57.6746 97.0528L49.1702 88.5867ZM57.5756 79.4864C54.8576 82.6124 52.0446 85.6574 49.14 88.6172L57.7048 97.0222C60.7783 93.8903 63.7551 90.6681 66.6313 87.36L57.5756 79.4864ZM61.7778 45.1111C61.7778 51.3703 56.7037 56.4444 50.4444 56.4444V68.4444C63.3311 68.4444 73.7778 57.9978 73.7778 45.1111H61.7778ZM50.4444 33.7778C56.7037 33.7778 61.7778 38.8519 61.7778 45.1111H73.7778C73.7778 32.2245 63.3311 21.7778 50.4444 21.7778V33.7778ZM39.1111 45.1111C39.1111 38.8519 44.1852 33.7778 50.4444 33.7778V21.7778C37.5578 21.7778 27.1111 32.2245 27.1111 45.1111H39.1111ZM50.4444 56.4444C44.1852 56.4444 39.1111 51.3703 39.1111 45.1111H27.1111C27.1111 57.9978 37.5578 68.4444 50.4444 68.4444V56.4444Z" fill="white" mask="url(#path-1-inside-1_283_10)"/>
<ellipse cx="49.5556" cy="45.5555" rx="28.8889" ry="28.4445" fill="#1AA717"/>
<g clip-path="url(#clip0_283_10)">
<path d="M41.6289 68.9644L42.4021 68.7483C43.1459 68.5404 43.5803 67.769 43.3725 67.0252L34.532 35.3885C34.4072 34.9421 34.1102 34.5634 33.7063 34.3359C33.3024 34.1085 32.8246 34.0508 32.3782 34.1755L32.2783 34.2034C31.3485 34.4632 30.8054 35.4275 31.0652 36.3573L39.9059 67.994C40.1137 68.7378 40.8851 69.1722 41.6289 68.9644Z" fill="white"/>
<path d="M72.7609 46.8559C69.9574 45.458 67.3639 43.6737 65.0561 41.5552C64.8621 41.3777 64.7862 41.1051 64.8606 40.8528C66.004 36.527 66.8532 32.1286 67.4023 27.688C67.4892 26.9494 67.0909 26.7321 66.6709 27.239C58.4302 37.0945 44.172 25.4359 35.6851 34.3935C35.787 34.5843 35.8671 34.7859 35.924 34.9945L41.6592 55.5311C50.1606 46.6821 64.3682 58.2683 72.5944 48.4345C73.0144 47.9276 73.094 47.0008 72.7609 46.8559Z" fill="white"/>
</g>
<defs>
<clipPath id="clip0_283_10">
<rect width="42" height="42" fill="white" transform="translate(31 27)"/>
</clipPath>
</defs>
</svg>
