<svg width="104" height="101" viewBox="0 0 104 101" fill="none" xmlns="http://www.w3.org/2000/svg">
<path d="M42.8889 31.1587L62.3333 1H104V101H42.8889V31.1587Z" fill="black"/>
<path d="M100.032 96.6349V4.17457H65.5079L69.0794 12.1111H91.6984V88.3016H61.5397L58.3651 96.6349H100.032Z" fill="white" stroke="black" stroke-width="0.793651"/>
<path d="M10.3661 36.7143L9.01195 35.8861L8.93297 36.0152L8.87981 36.1569L10.3661 36.7143ZM10.3661 36.7143C8.87981 36.1569 8.87952 36.1577 8.87921 36.1585L8.87858 36.1602L8.87724 36.1638L8.87424 36.172L8.86703 36.192C8.86171 36.207 8.85538 36.2252 8.84823 36.2466C8.83394 36.2893 8.8163 36.3447 8.79685 36.4116C8.75806 36.5451 8.71143 36.7267 8.66986 36.947C8.58748 37.3836 8.52045 37.9962 8.58749 38.7001C8.7272 40.1671 9.44918 41.9317 11.5089 43.219C13.8474 44.6806 16.0502 43.8643 17.411 42.9365C18.0908 42.473 18.63 41.9454 18.9934 41.5456C19.1777 41.343 19.3232 41.166 19.4254 41.0358C19.4767 40.9705 19.5175 40.9165 19.5471 40.8763C19.562 40.8562 19.5741 40.8395 19.5834 40.8266L19.5953 40.8099L19.5996 40.8038L19.6014 40.8013L19.6022 40.8002C19.6026 40.7996 19.6029 40.7991 18.3026 39.8889L19.6029 40.7991L19.6312 40.7587L19.657 40.7166L23.5579 34.3333H31.9077C30.8994 35.7777 29.5609 37.7178 28.1685 39.8003C26.736 41.9428 25.2394 44.2468 23.9847 46.3221C22.7503 48.3641 21.6856 50.2887 21.1814 51.6331C20.6583 53.028 20.3463 54.9624 20.1487 56.9571C19.9476 58.9873 19.8533 61.2163 19.8157 63.2725C19.778 65.3323 19.7969 67.2386 19.8251 68.6289C19.83 68.8727 19.8353 69.1009 19.8405 69.3114L10.3293 69.6511L10.3226 69.6512C10.3015 69.6515 10.274 69.6521 10.2405 69.6531C10.1735 69.6552 10.0822 69.6592 9.97004 69.6668C9.74635 69.6819 9.43659 69.7114 9.06983 69.7695C8.34529 69.8843 7.35209 70.1177 6.35014 70.6034C5.34315 71.0917 4.28128 71.8583 3.5081 73.0555C2.72514 74.2678 2.31497 75.8037 2.43263 77.6863C2.54788 79.5302 3.07767 80.9812 3.90648 82.0863C4.73267 83.1879 5.77949 83.8439 6.76725 84.2263C7.74427 84.6045 8.68265 84.7236 9.36009 84.7534C9.70308 84.7685 9.99107 84.7611 10.1996 84.7493C10.3042 84.7433 10.3898 84.7362 10.4532 84.73C10.4704 84.7283 10.486 84.7267 10.4999 84.7252L10.6183 84.7188L11.0924 84.6929C11.5028 84.6704 12.0939 84.6378 12.8168 84.5975C14.2626 84.5168 16.236 84.4051 18.3462 84.281C22.5536 84.0335 27.3441 83.7344 29.5574 83.5331C30.8061 83.4196 31.8574 83.1244 32.7047 82.605C33.5796 82.0688 34.1497 81.3466 34.4937 80.5439C34.823 79.7755 34.9256 78.9796 34.9609 78.2952C34.9852 77.8243 34.9788 77.309 34.9733 76.8685C34.9712 76.6977 34.9692 76.5382 34.9692 76.3968C34.9692 75.1685 34.8683 72.2553 34.7696 69.689C34.7403 68.9272 34.711 68.1915 34.6843 67.5326C35.1485 67.7806 35.6514 68.0564 36.1658 68.3504C37.1831 68.9317 38.2217 69.5705 39.0889 70.1949C39.9996 70.8506 40.5642 71.3809 40.7914 71.7217C40.833 71.7842 40.9483 72.0247 41.0774 72.5509C41.1979 73.0422 41.3033 73.6657 41.3921 74.394C41.5695 75.8486 41.6669 77.6035 41.7159 79.3191C41.7647 81.0284 41.7648 82.6684 41.7525 83.8833C41.7464 84.49 41.7372 84.9889 41.7296 85.3354C41.7258 85.5086 41.7224 85.6436 41.7199 85.7347L41.717 85.8379L41.7169 85.8423L41.7166 85.847C41.7149 85.873 41.7127 85.9085 41.7104 85.9532C41.7057 86.0424 41.7002 86.1679 41.6964 86.3247C41.6886 86.6378 41.6871 87.078 41.7107 87.6039C41.7574 88.6461 41.9049 90.0695 42.3231 91.5193C42.7385 92.9594 43.4517 94.5322 44.7021 95.759C45.9924 97.025 47.7589 97.8254 50.0486 97.8254C52.2815 97.8254 54.0245 97.1386 55.3239 96.0107C56.5945 94.908 57.3292 93.4818 57.7581 92.1667C58.1877 90.8492 58.3383 89.5588 58.3861 88.6176C58.4102 88.1421 58.4086 87.7435 58.4007 87.4589C58.3967 87.3164 58.3911 87.2017 58.3862 87.1194C58.3851 87.1012 58.3841 87.0845 58.3831 87.0694C58.3818 87.0506 58.3807 87.0343 58.3797 87.0207L58.379 87.0124L58.3779 86.9879L58.3712 86.8441L58.3453 86.2957C58.3228 85.8216 58.2902 85.1404 58.2498 84.3119C58.1692 82.6551 58.0574 80.4084 57.9333 78.0495C57.6866 73.3625 57.3866 68.1446 57.1817 66.3009C56.9083 63.8402 55.0602 62.003 53.6521 60.9078C52.9068 60.3281 52.1822 59.8775 51.6465 59.5724C51.3771 59.4189 51.1516 59.3001 50.9902 59.218C50.9093 59.1769 50.8442 59.1449 50.7974 59.1223C50.7942 59.1208 50.7911 59.1193 50.7881 59.1178L44.5772 55.522L46.1991 52.1534C46.2103 52.4097 46.2226 52.6594 46.236 52.8993C46.2885 53.8352 46.3655 54.7843 46.5077 55.3532L46.8083 56.5555H48.0476H66.2567C66.2686 56.5561 66.2818 56.5568 66.2964 56.5574C66.3532 56.5598 66.4303 56.5622 66.5249 56.5632C66.7135 56.5651 66.9747 56.5612 67.285 56.5391C67.8963 56.4956 68.7452 56.3783 69.6202 56.0667C70.495 55.7553 71.4688 55.223 72.2271 54.305C73.0058 53.3622 73.4613 52.1276 73.4613 50.6032C73.4613 49.1617 73.128 47.9742 72.5464 47.0225C71.9669 46.0743 71.1953 45.4487 70.4515 45.043C69.7165 44.6421 68.9981 44.4491 68.4749 44.354C68.2099 44.3058 67.9851 44.2809 67.8198 44.268C67.7368 44.2616 67.668 44.2581 67.6156 44.2562C67.6022 44.2557 67.5898 44.2553 67.5786 44.255C67.5678 44.2547 67.5581 44.2545 67.5494 44.2543L67.5258 44.254L67.5165 44.254L67.5125 44.2539H67.5106C67.5098 44.2539 67.5089 44.2539 67.5089 45.8412V44.2539H57.5644C57.5631 44.2003 57.5617 44.1455 57.5603 44.0898C57.5336 43.0336 57.4811 41.5961 57.3778 40.0787C57.2749 38.5672 57.1196 36.9465 56.8825 35.5339C56.764 34.8278 56.6209 34.148 56.4449 33.5466C56.2754 32.967 56.0473 32.3602 55.7175 31.8655C55.3692 31.3431 54.8927 30.8292 54.3504 30.3366C61.8591 30.1506 67.8889 24.0055 67.8889 16.452C67.8889 8.78142 61.6706 2.56315 54 2.56315C46.3294 2.56315 40.1111 8.78142 40.1111 16.452C40.1111 19.0195 40.8078 21.4243 42.0224 23.4876C41.6045 23.405 41.1096 23.3415 40.605 23.2879C39.775 23.1996 38.7407 23.1219 37.583 23.056C35.265 22.9241 32.3993 22.8367 29.5765 22.8117C26.7569 22.7867 23.9543 22.8238 21.7681 22.9442C20.6797 23.0042 19.7105 23.0865 18.9565 23.1986C18.5828 23.2542 18.2221 23.3227 17.9098 23.4123C17.6853 23.4767 17.1728 23.6311 16.7833 24.0206C16.5327 24.2712 16.2352 24.6625 15.9536 25.0521C15.6499 25.4721 15.2922 25.9932 14.9059 26.5709C14.1323 27.728 13.2187 29.1503 12.3481 30.5264C11.4763 31.9043 10.6425 33.2438 10.027 34.2383C9.71914 34.7357 9.46564 35.1472 9.28899 35.4346L9.08443 35.7677L9.03063 35.8555L9.01677 35.8782L9.01321 35.884L9.01229 35.8855L9.01205 35.8859C9.01198 35.886 9.01195 35.8861 10.3661 36.7143Z" fill="#FE4B12" stroke="black" stroke-width="3.1746"/>
</svg>
