<svg width="70" height="102" viewBox="0 0 70 102" fill="none" xmlns="http://www.w3.org/2000/svg">
<path d="M36.5 37.8125V39.3125H38H65.995H67.495V37.8125V22.5425V21.7111L66.79 21.2705L56.61 14.908L54.315 13.4736V16.18V26.1325H49.68V12.3625V11.5311L48.975 11.0905L38.795 4.728L36.5 3.29363V6V37.8125Z" fill="#FEC532" stroke="black" stroke-width="3"/>
<path d="M33.495 37.8125V39.3125H31.995H3.99999H2.49999V37.8125V22.5425V21.7111L3.205 21.2705L13.385 14.908L15.68 13.4736V16.18V26.1325H20.315V12.3625V11.5311L21.02 11.0905L31.2 4.728L33.495 3.29363V6V37.8125Z" fill="#FEC532" stroke="black" stroke-width="3"/>
<path d="M8 41.5H6.5V43V49.5625V51.0625H8H10.4375V82.375V83.043L10.9341 83.4899L24.0591 95.3024L26.5625 97.5555V94.1875V59.8695L34.9921 54.3028L43.25 59.861V94.1875V97.8088L45.8107 95.2482L57.6232 83.4357L58.0625 82.9963V82.375V51.0625H61.8125H63.3125V49.5625V43V41.5H61.8125H8Z" fill="#FEC532" stroke="black" stroke-width="3"/>
</svg>
