<svg width="100" height="100" viewBox="0 0 100 100" fill="none" xmlns="http://www.w3.org/2000/svg">
<g clip-path="url(#clip0_377_35)">
<path d="M45.5116 56.9153C45.4275 53.4663 45.1331 46.484 44.6283 35.9685L44.4391 31.6151L54.6601 31.0473C54.7022 31.8885 54.7232 33.1294 54.7232 34.7698C54.7232 39.1442 54.5129 44.3178 54.0923 50.2906C53.924 52.9826 53.8189 54.7071 53.7768 55.4642C51.7578 56.5999 49.1079 57.1887 45.8271 57.2308L45.5116 56.9153ZM49.4865 71.5529C48.0984 71.5529 46.9417 71.1112 46.0164 70.2279C45.1331 69.3026 44.6914 68.0617 44.6914 66.5054C44.6914 65.1595 45.1541 64.0238 46.0795 63.0984C47.0469 62.1731 48.2246 61.7104 49.6127 61.7104C50.9587 61.7104 52.0733 62.1731 52.9566 63.0984C53.882 64.0238 54.3446 65.1595 54.3446 66.5054C54.3446 68.0617 53.903 69.3026 53.0197 70.2279C52.1364 71.1112 50.9587 71.5529 49.4865 71.5529Z" fill="#E6B539"/>
<rect x="13.5" y="13.5" width="72" height="72" rx="36" fill="black" stroke="#E6B539" stroke-width="5"/>
<g clip-path="url(#clip1_377_35)">
<path d="M60.4348 38.9003L66.7911 32.544C68.5195 30.8156 68.5172 28.0219 66.7914 26.2959C65.0629 24.5665 62.2673 24.5693 60.5419 26.2956L54.0898 32.7477C54.4782 33.009 54.8442 33.3097 55.1824 33.6484C56.5569 35.0227 58.4542 36.9199 60.4348 38.9003Z" fill="#E6B539"/>
<path d="M68.1024 42.0252C66.6759 40.5985 64.5082 40.3548 62.8262 41.2916C64.764 43.2294 66.6136 45.079 67.9614 46.4269C68.2677 46.7331 68.5386 47.0613 68.7784 47.4048C69.7837 45.7096 69.5586 43.4815 68.1024 42.0252Z" fill="#E6B539"/>
<path d="M53.192 35.6357C51.4645 33.9056 48.668 33.9091 46.9422 35.635L41.171 41.4061C39.9458 42.6314 38.9322 44.0375 38.1585 45.5858C38.1542 45.5942 38.15 45.6029 38.146 45.6113C37.5085 46.8788 36.6765 48.0305 35.6731 49.0346L29.9005 54.8064C28.1734 56.536 28.1746 59.328 29.901 61.0547C31.8226 62.9768 40.5512 71.7047 40.5512 71.7047C42.2968 73.453 45.0988 73.41 46.8011 71.7055L52.5734 65.9339C53.5827 64.9241 54.7426 64.088 56.0216 63.4487C57.571 62.6735 58.977 61.6601 60.2006 60.4365L65.9724 54.6646C67.6727 52.9643 67.7216 50.1647 65.9724 48.4155C62.6987 45.1416 56.4658 38.9087 53.192 35.6357ZM55.322 56.7944C54.7738 57.3426 53.8834 57.3445 53.3332 56.7944L44.8124 48.2744C44.2633 47.7254 44.2632 46.8349 44.8123 46.2856C45.3614 45.7365 46.2517 45.7365 46.8011 46.2855L55.3219 54.8055C55.871 55.3547 55.8711 56.2452 55.322 56.7944ZM59.5823 52.5348C59.0331 53.084 58.1426 53.084 57.5936 52.5348L49.0727 44.0139C48.5235 43.4648 48.5235 42.5744 49.0727 42.0252C49.6218 41.476 50.5123 41.476 51.0615 42.0252L59.5823 50.5461C60.1316 51.0952 60.1316 51.9856 59.5823 52.5348Z" fill="#E6B539"/>
</g>
</g>
<defs>
<clipPath id="clip0_377_35">
<rect width="100" height="100" fill="white"/>
</clipPath>
<clipPath id="clip1_377_35">
<rect width="48" height="48" fill="white" transform="translate(25 25)"/>
</clipPath>
</defs>
<style xmlns="" id="autoconsent-prehide"/></svg>