<svg width="100" height="100" viewBox="0 0 100 100" fill="none" xmlns="http://www.w3.org/2000/svg">
<path d="M33.3778 85.9079C36.4565 85.9079 39.2846 84.8145 41.4855 82.9936H58.5145C60.7154 84.8145 63.5435 85.9079 66.6222 85.9079H84.2222C91.2104 85.9079 96.9079 80.2746 96.9079 73.2857V24.7143C96.9079 17.7254 91.2104 12.0921 84.2222 12.0921H66.6222C63.0294 12.0921 59.7778 13.5811 57.4662 15.9778L42.5338 15.9778C40.2222 13.5811 36.9706 12.0921 33.3778 12.0921H15.7778C8.78956 12.0921 3.0921 17.7254 3.0921 24.7143V73.2857C3.0921 80.2746 8.78957 85.9079 15.7778 85.9079H33.3778Z" fill="#E0B452" stroke="#52401B" stroke-width="5.81579"/>
<path d="M44.9115 58.9801C44.9115 57.1604 45.2424 55.6302 45.9041 54.3895C46.6071 53.1074 47.4343 52.0735 48.3855 51.2877C49.3367 50.5019 50.5567 49.6541 52.0455 48.7443C53.7412 47.7104 54.9819 46.8005 55.7677 46.0147C56.5534 45.1876 56.9463 44.1744 56.9463 42.975V40.7417C56.9463 39.4597 56.4914 38.4464 55.5815 37.702C54.6717 36.9163 53.4517 36.5234 51.9215 36.5234H46.5865C44.9322 36.5234 43.6088 37.0817 42.6162 38.1983C41.6236 39.2736 41.1274 40.7211 41.1274 42.5408H32.5665C32.5665 39.8939 33.1455 37.5573 34.3035 35.5308C35.4615 33.463 37.0951 31.8707 39.2043 30.7541C41.3548 29.6375 43.8156 29.0791 46.5865 29.0791H51.9215C54.6097 29.0791 56.967 29.5754 58.9935 30.568C61.0613 31.5192 62.6535 32.884 63.7702 34.6623C64.9282 36.3993 65.5072 38.4258 65.5072 40.7417V42.975C65.5072 44.8361 65.1763 46.3869 64.5146 47.6276C63.8942 48.8683 63.1291 49.8402 62.2193 50.5433C61.3508 51.2464 60.1721 52.0528 58.6833 52.9627C56.9463 53.9552 55.6436 54.9064 54.7751 55.8163C53.9066 56.6848 53.4724 57.9048 53.4724 59.4763V60.3448H44.9115V58.9801ZM49.1919 73.6204C47.6617 73.6204 46.421 73.1654 45.4698 72.2556C44.56 71.3044 44.1051 70.0637 44.1051 68.5335C44.1051 67.0033 44.56 65.7832 45.4698 64.8734C46.421 63.9222 47.6617 63.4466 49.1919 63.4466C50.7221 63.4466 51.9422 63.9222 52.852 64.8734C53.8032 65.7832 54.2788 67.0033 54.2788 68.5335C54.2788 70.0637 53.8032 71.3044 52.852 72.2556C51.9422 73.1654 50.7221 73.6204 49.1919 73.6204Z" fill="#52401B"/>
</svg>
